<svg data-v-fde0c5aa="" xmlns="http://www.w3.org/2000/svg" viewBox="0 0 300 300" class="iconAboveSlogan"><!----><defs data-v-fde0c5aa=""><!----></defs><rect data-v-fde0c5aa="" fill="transparent" x="0" y="0" width="300px" height="300px" class="logo-background-square"></rect><defs data-v-fde0c5aa=""><!----></defs><g data-v-fde0c5aa="" id="17f242ce-3ff0-4e59-85e9-2359196390e3" fill="#000000" transform="matrix(6.6615048062119095,0,0,6.6615048062119095,59.40353209435561,144.8371097060786)"><path d="M0 4.30L0 4.30L0 3.78L3.86 3.78L3.86 4.30L3.86 4.30Q3.18 4.35 2.94 4.45L2.94 4.45L2.94 4.45Q2.70 4.55 2.70 4.76L2.70 4.76L2.70 4.76Q2.70 5.08 4.82 8.40L4.82 8.40L4.82 8.40Q7.15 5.05 7.15 4.69L7.15 4.69L7.15 4.69Q7.15 4.49 6.94 4.43L6.94 4.43L6.94 4.43Q6.72 4.37 6.17 4.33L6.17 4.33L6.17 3.78L9.09 3.78L9.09 4.28L9.09 4.28Q8.54 4.35 8.32 4.63L8.32 4.63L5.18 8.97L5.18 8.97Q5.14 9.90 5.14 12.03L5.14 12.03L5.14 12.03Q5.14 13.05 5.21 13.17L5.21 13.17L5.21 13.17Q5.40 13.54 6.61 13.62L6.61 13.62L6.61 14.11L2.27 14.11L2.27 13.62L2.27 13.62Q2.72 13.58 2.98 13.54L2.98 13.54L2.98 13.54Q3.25 13.50 3.49 13.35L3.49 13.35L3.49 13.35Q3.74 13.20 3.74 12.95L3.74 12.95L3.68 9.10L3.68 9.10Q3.36 8.53 0.90 4.96L0.90 4.96L0.90 4.96Q0.50 4.34 0 4.30ZM10.33 4.80L10.33 4.80L10.33 4.80Q10.33 4.63 10.56 4.21L10.56 4.21L10.56 4.21Q10.79 3.79 11.09 3.79L11.09 3.79L11.09 3.79Q11.30 3.79 11.61 4.05L11.61 4.05L11.61 4.05Q11.91 4.31 11.91 4.65L11.91 4.65L11.91 4.65Q11.91 4.98 11.63 5.31L11.63 5.31L11.63 5.31Q11.34 5.64 11.09 5.64L11.09 5.64L11.09 5.64Q10.89 5.64 10.61 5.30L10.61 5.30L10.61 5.30Q10.33 4.96 10.33 4.80ZM12.75 14.11L9.51 14.11L9.51 13.64L9.51 13.64Q10.22 13.58 10.40 13.45L10.40 13.45L10.40 13.45Q10.58 13.31 10.58 12.89L10.58 12.89L10.58 9.98L10.58 9.98Q10.58 8.76 10.52 8.29L10.52 8.29L10.52 8.29Q10.46 7.81 10.32 7.68L10.32 7.68L10.32 7.68Q10.18 7.55 9.79 7.55L9.79 7.55L9.58 7.55L9.55 7.08L9.55 7.08Q10.15 7.03 10.64 6.94L10.64 6.94L10.64 6.94Q11.13 6.86 11.37 6.80L11.37 6.80L11.37 6.80Q11.61 6.75 11.65 6.75L11.65 6.75L11.65 6.75Q11.89 6.75 11.89 6.97L11.89 6.97L11.89 6.97Q11.89 7.14 11.87 7.89L11.87 7.89L11.87 7.89Q11.86 8.64 11.84 10.01L11.84 10.01L11.84 10.01Q11.82 11.38 11.82 13.06L11.82 13.06L11.82 13.06Q11.82 13.34 12.04 13.47L12.04 13.47L12.04 13.47Q12.26 13.61 12.75 13.64L12.75 13.64L12.75 14.11ZM13.38 3.75L13.36 3.29L13.36 3.29Q13.96 3.23 14.45 3.15L14.45 3.15L14.45 3.15Q14.94 3.07 15.17 3.01L15.17 3.01L15.17 3.01Q15.40 2.95 15.44 2.95L15.44 2.95L15.44 2.95Q15.69 2.95 15.69 3.16L15.69 3.16L15.69 3.25L15.69 3.56L15.69 3.77L15.68 9.98L15.68 9.98Q16.16 9.98 17.02 9.07L17.02 9.07L17.02 9.07Q17.89 8.16 17.89 7.69L17.89 7.69L17.89 7.69Q17.89 7.45 17.60 7.45L17.60 7.45L17.60 7.45Q17.47 7.45 17.40 7.37L17.40 7.37L17.40 7.37Q17.33 7.29 17.33 7.20L17.33 7.20L17.33 7.20Q17.33 6.99 17.60 6.97L17.60 6.97L17.60 6.97Q18.07 7.01 18.96 7.01L18.96 7.01L18.96 7.01Q19.81 7.01 20.29 6.97L20.29 6.97L20.29 6.97Q20.54 6.97 20.54 7.20L20.54 7.20L20.54 7.20Q20.54 7.28 20.49 7.34L20.49 7.34L20.49 7.34Q20.44 7.41 20.38 7.43L20.38 7.43L20.38 7.43Q20.33 7.45 20.26 7.47L20.26 7.47L20.26 7.47Q20.19 7.49 20.17 7.49L20.17 7.49L20.17 7.49Q19.61 7.71 18.84 8.31L18.84 8.31L18.84 8.31Q18.07 8.90 17.58 9.39L17.58 9.39L17.09 9.88L20.92 13.69L20.92 13.69Q21.08 13.86 21.08 13.97L21.08 13.97L21.08 13.97Q21.08 14.03 21.04 14.06L21.04 14.06L21.04 14.06Q21 14.10 20.96 14.11L20.96 14.11L20.92 14.11L20.92 14.11Q19.85 14.11 19.19 14.17L19.19 14.17L19.19 14.17Q17.08 11.66 16.67 11.22L16.67 11.22L16.67 11.22Q16.25 10.78 15.90 10.67L15.90 10.67L15.90 10.67Q15.75 10.61 15.65 10.57L15.65 10.57L15.65 10.57Q15.67 10.77 15.67 11.07L15.67 11.07L15.67 11.07Q15.67 11.52 15.65 12.07L15.65 12.07L15.65 12.07Q15.64 12.63 15.64 12.75L15.64 12.75L15.64 12.75Q15.64 12.89 15.64 12.98L15.64 12.98L15.64 12.98Q15.64 13.08 15.66 13.16L15.66 13.16L15.66 13.16Q15.68 13.24 15.69 13.29L15.69 13.29L15.69 13.29Q15.69 13.34 15.75 13.39L15.75 13.39L15.75 13.39Q15.81 13.44 15.83 13.46L15.83 13.46L15.83 13.46Q15.85 13.48 15.95 13.51L15.95 13.51L15.95 13.51Q16.04 13.54 16.09 13.54L16.09 13.54L16.09 13.54Q16.13 13.55 16.28 13.59L16.28 13.59L16.28 13.59Q16.42 13.62 16.51 13.64L16.51 13.64L16.51 14.11L13.48 14.11L13.48 13.64L13.48 13.64Q13.55 13.62 13.72 13.59L13.72 13.59L13.72 13.59Q13.89 13.55 13.92 13.54L13.92 13.54L13.92 13.54Q13.96 13.52 14.07 13.50L14.07 13.50L14.07 13.50Q14.18 13.47 14.20 13.43L14.20 13.43L14.20 13.43Q14.22 13.40 14.29 13.34L14.29 13.34L14.29 13.34Q14.36 13.29 14.36 13.21L14.36 13.21L14.36 13.21Q14.36 13.13 14.40 13.03L14.40 13.03L14.40 13.03Q14.43 12.94 14.43 12.79L14.43 12.79L14.43 12.79Q14.43 12.64 14.44 12.48L14.44 12.48L14.44 12.48Q14.45 12.32 14.45 12.08L14.45 12.08L14.45 12.08Q14.45 10.70 14.46 8.90L14.46 8.90L14.46 8.90Q14.48 7.11 14.48 6.66L14.48 6.66L14.48 6.66Q14.48 5.89 14.47 5.43L14.47 5.43L14.47 5.43Q14.46 4.96 14.39 4.61L14.39 4.61L14.39 4.61Q14.32 4.26 14.29 4.11L14.29 4.11L14.29 4.11Q14.25 3.96 14.07 3.87L14.07 3.87L14.07 3.87Q13.89 3.78 13.80 3.77L13.80 3.77L13.80 3.77Q13.71 3.77 13.38 3.75L13.38 3.75ZM21.50 10.67L21.50 10.67L21.50 10.67Q21.50 9.25 21.81 8.53L21.81 8.53L21.81 8.53Q22.04 8.01 22.89 7.40L22.89 7.40L22.89 7.40Q23.74 6.79 24.49 6.79L24.49 6.79L24.49 6.79Q25.13 6.79 25.62 6.94L25.62 6.94L25.62 6.94Q26.11 7.10 26.39 7.40L26.39 7.40L26.39 7.40Q26.67 7.70 26.85 7.99L26.85 7.99L26.85 7.99Q27.02 8.27 27.08 8.70L27.08 8.70L27.08 8.70Q27.15 9.13 27.17 9.38L27.17 9.38L27.17 9.38Q27.19 9.63 27.19 10.00L27.19 10.00L27.19 10.00Q27.19 10.12 27.19 10.18L27.19 10.18L27.19 10.18Q26.74 10.46 25.72 10.46L25.72 10.46L22.85 10.46L22.85 10.46Q22.85 10.91 22.86 11.15L22.86 11.15L22.86 11.15Q22.88 11.40 22.92 11.78L22.92 11.78L22.92 11.78Q22.96 12.17 23.08 12.38L23.08 12.38L23.08 12.38Q23.20 12.60 23.39 12.82L23.39 12.82L23.39 12.82Q23.59 13.05 23.91 13.15L23.91 13.15L23.91 13.15Q24.23 13.24 24.67 13.24L24.67 13.24L24.67 13.24Q25.89 13.24 26.89 12.25L26.89 12.25L27.20 12.57L27.20 12.57Q27.15 12.63 26.94 12.85L26.94 12.85L26.94 12.85Q26.73 13.06 26.66 13.13L26.66 13.13L26.66 13.13Q26.59 13.20 26.39 13.39L26.39 13.39L26.39 13.39Q26.19 13.58 26.09 13.65L26.09 13.65L26.09 13.65Q25.98 13.72 25.80 13.86L25.80 13.86L25.80 13.86Q25.61 14 25.47 14.06L25.47 14.06L25.47 14.06Q25.34 14.11 25.15 14.19L25.15 14.19L25.15 14.19Q24.96 14.27 24.77 14.29L24.77 14.29L24.77 14.29Q24.58 14.32 24.39 14.32L24.39 14.32L24.39 14.32Q23.55 14.32 22.95 13.99L22.95 13.99L22.95 13.99Q22.36 13.66 22.06 13.10L22.06 13.10L22.06 13.10Q21.76 12.54 21.63 11.95L21.63 11.95L21.63 11.95Q21.50 11.35 21.50 10.67ZM22.88 9.83L22.88 9.83L23.67 9.83L23.67 9.83Q25.54 9.83 25.89 9.58L25.89 9.58L25.89 9.58Q25.89 9.28 25.83 9.00L25.83 9.00L25.83 9.00Q25.77 8.72 25.63 8.41L25.63 8.41L25.63 8.41Q25.49 8.09 25.19 7.90L25.19 7.90L25.19 7.90Q24.88 7.70 24.43 7.70L24.43 7.70L24.43 7.70Q23.48 7.70 23.18 8.17L23.18 8.17L23.18 8.17Q22.88 8.64 22.88 9.83Z"></path></g><defs data-v-fde0c5aa=""><!----></defs><g data-v-fde0c5aa="" id="3a97268b-92f1-4191-911c-49d9b16815a9" stroke="none" fill="#FFDF2A" transform="matrix(1.2838917252787891,0,0,1.2838917252787891,85.80541426659148,40.00000015603181)"><path d="M95.88 0H22.389a4.12 4.12 0 0 0-4.121 4.12v1.276H4.847A4.846 4.846 0 0 0 0 10.242v55.833a4.846 4.846 0 0 0 4.847 4.847h51.276l16.236 12.02-2.181-12.02h21.13a4.846 4.846 0 0 0 4.847-4.847V55.683A4.117 4.117 0 0 0 100 51.578V4.12A4.12 4.12 0 0 0 95.88 0zm2.918 51.029a3.998 3.998 0 0 1-2.644 3.758 3.982 3.982 0 0 1-1.355.241H52.498l-13.396 9.916 1.8-9.916H23.469a4 4 0 0 1-3.999-3.999V4.968A4 4 0 0 1 23.469.969h71.33a4 4 0 0 1 3.999 3.999v46.061z"></path></g><defs data-v-fde0c5aa=""><!----></defs><g data-v-fde0c5aa="" id="e0b9a0cf-b20e-4dcd-b873-f92380474bf9" fill="#000000" transform="matrix(0.9858871911306486,0,0,0.9858871911306486,81.5794232002197,248.57356753941517)"><path d="M4.06 10.64C2.51 10.64 1.53 9.42 1.53 7.98C1.53 6.54 2.51 5.32 4.06 5.32C5.05 5.32 5.77 5.88 6.09 6.68L7.22 6.68C6.82 5.32 5.57 4.37 3.92 4.37C1.82 4.37 0.48 5.98 0.48 7.98C0.48 9.98 1.82 11.59 3.92 11.59C5.57 11.59 6.82 10.64 7.22 9.28L6.09 9.28C5.77 10.08 5.05 10.64 4.06 10.64ZM15.53 1.68L15.53 11.48L16.58 11.48L16.58 7.45C16.58 6.19 17.53 5.32 18.69 5.32C19.84 5.32 20.65 6.16 20.65 7.43L20.65 11.48L21.70 11.48L21.70 7.41C21.70 5.42 20.34 4.37 18.90 4.37C17.77 4.37 17.08 4.90 16.58 5.57L16.58 1.68ZM33.40 4.37C31.36 4.37 30.02 5.98 30.02 7.98C30.02 9.98 31.36 11.59 33.40 11.59C34.57 11.59 35.39 11.12 35.91 10.36L35.91 11.48L36.96 11.48L36.96 4.48L35.91 4.48L35.91 5.61C35.39 4.86 34.57 4.37 33.40 4.37ZM33.54 10.64C31.99 10.64 31.07 9.42 31.07 7.98C31.07 6.54 31.99 5.32 33.54 5.32C35.10 5.32 35.97 6.54 35.97 7.98C35.97 9.42 35.10 10.64 33.54 10.64ZM47.59 11.48L47.59 5.40L49.20 5.40L49.20 4.48L47.59 4.48L47.59 1.97L46.54 1.97L46.54 4.48L45.11 4.48L45.11 5.40L46.54 5.40L46.54 11.48ZM70.36 4.37C68.22 4.37 66.89 5.98 66.89 7.98C66.89 9.98 68.22 11.59 70.36 11.59C72.51 11.59 73.84 9.98 73.84 7.98C73.84 5.98 72.51 4.37 70.36 4.37ZM70.36 10.64C68.81 10.64 67.94 9.42 67.94 7.98C67.94 6.54 68.81 5.32 70.36 5.32C71.92 5.32 72.79 6.54 72.79 7.98C72.79 9.42 71.92 10.64 70.36 10.64ZM82.22 4.48L82.22 11.48L83.27 11.48L83.27 7.45C83.27 6.19 84.22 5.32 85.39 5.32C86.53 5.32 87.35 6.16 87.35 7.43L87.35 11.48L88.40 11.48L88.40 7.41C88.40 5.42 87.04 4.37 85.60 4.37C84.46 4.37 83.78 4.90 83.27 5.57L83.27 4.48ZM98.20 1.68L97.15 1.68L97.15 11.48L98.20 11.48ZM107.02 11.48L108.07 11.48L108.07 4.48L107.02 4.48ZM106.97 1.93L106.97 3.30L108.11 3.30L108.11 1.93ZM116.89 4.48L116.89 11.48L117.94 11.48L117.94 7.45C117.94 6.19 118.89 5.32 120.05 5.32C121.20 5.32 122.01 6.16 122.01 7.43L122.01 11.48L123.06 11.48L123.06 7.41C123.06 5.42 121.70 4.37 120.26 4.37C119.13 4.37 118.44 4.90 117.94 5.57L117.94 4.48ZM134.93 10.64C133.52 10.64 132.61 9.65 132.45 8.40L138.32 8.40L138.32 7.98C138.32 5.98 136.99 4.37 134.85 4.37C132.71 4.37 131.38 5.98 131.38 7.98C131.38 9.98 132.78 11.59 134.92 11.59C136.58 11.59 137.62 10.72 138.11 9.46L136.96 9.46C136.58 10.16 135.91 10.64 134.93 10.64ZM134.85 5.32C136.19 5.32 137.03 6.23 137.23 7.42L132.47 7.42C132.66 6.23 133.50 5.32 134.85 5.32Z"></path></g></svg>