<svg data-v-423bf9ae="" xmlns="http://www.w3.org/2000/svg" viewBox="0 0 143.53562552354583 60" class="font"><!----><!----><!----><g data-v-423bf9ae="" id="b4105c49-3239-493e-9369-5b8ba8bad2ca" fill="black" transform="matrix(5.277044907995591,0,0,5.277044907995591,-3.28910800817539e-8,-15.567282968634686)"><path d="M0 4.30L0 4.30L0 3.78L3.86 3.78L3.86 4.30L3.86 4.30Q3.18 4.35 2.94 4.45L2.94 4.45L2.94 4.45Q2.70 4.55 2.70 4.76L2.70 4.76L2.70 4.76Q2.70 5.08 4.82 8.40L4.82 8.40L4.82 8.40Q7.15 5.05 7.15 4.69L7.15 4.69L7.15 4.69Q7.15 4.49 6.94 4.43L6.94 4.43L6.94 4.43Q6.72 4.37 6.17 4.33L6.17 4.33L6.17 3.78L9.09 3.78L9.09 4.28L9.09 4.28Q8.54 4.35 8.32 4.63L8.32 4.63L5.18 8.97L5.18 8.97Q5.14 9.90 5.14 12.03L5.14 12.03L5.14 12.03Q5.14 13.05 5.21 13.17L5.21 13.17L5.21 13.17Q5.40 13.54 6.61 13.62L6.61 13.62L6.61 14.11L2.27 14.11L2.27 13.62L2.27 13.62Q2.72 13.58 2.98 13.54L2.98 13.54L2.98 13.54Q3.25 13.50 3.49 13.35L3.49 13.35L3.49 13.35Q3.74 13.20 3.74 12.95L3.74 12.95L3.68 9.10L3.68 9.10Q3.36 8.53 0.90 4.96L0.90 4.96L0.90 4.96Q0.50 4.34 0 4.30ZM10.33 4.80L10.33 4.80L10.33 4.80Q10.33 4.63 10.56 4.21L10.56 4.21L10.56 4.21Q10.79 3.79 11.09 3.79L11.09 3.79L11.09 3.79Q11.30 3.79 11.61 4.05L11.61 4.05L11.61 4.05Q11.91 4.31 11.91 4.65L11.91 4.65L11.91 4.65Q11.91 4.98 11.63 5.31L11.63 5.31L11.63 5.31Q11.34 5.64 11.09 5.64L11.09 5.64L11.09 5.64Q10.89 5.64 10.61 5.30L10.61 5.30L10.61 5.30Q10.33 4.96 10.33 4.80ZM12.75 14.11L9.51 14.11L9.51 13.64L9.51 13.64Q10.22 13.58 10.40 13.45L10.40 13.45L10.40 13.45Q10.58 13.31 10.58 12.89L10.58 12.89L10.58 9.98L10.58 9.98Q10.58 8.76 10.52 8.29L10.52 8.29L10.52 8.29Q10.46 7.81 10.32 7.68L10.32 7.68L10.32 7.68Q10.18 7.55 9.79 7.55L9.79 7.55L9.58 7.55L9.55 7.08L9.55 7.08Q10.15 7.03 10.64 6.94L10.64 6.94L10.64 6.94Q11.13 6.86 11.37 6.80L11.37 6.80L11.37 6.80Q11.61 6.75 11.65 6.75L11.65 6.75L11.65 6.75Q11.89 6.75 11.89 6.97L11.89 6.97L11.89 6.97Q11.89 7.14 11.87 7.89L11.87 7.89L11.87 7.89Q11.86 8.64 11.84 10.01L11.84 10.01L11.84 10.01Q11.82 11.38 11.82 13.06L11.82 13.06L11.82 13.06Q11.82 13.34 12.04 13.47L12.04 13.47L12.04 13.47Q12.26 13.61 12.75 13.64L12.75 13.64L12.75 14.11ZM13.38 3.75L13.36 3.29L13.36 3.29Q13.96 3.23 14.45 3.15L14.45 3.15L14.45 3.15Q14.94 3.07 15.17 3.01L15.17 3.01L15.17 3.01Q15.40 2.95 15.44 2.95L15.44 2.95L15.44 2.95Q15.69 2.95 15.69 3.16L15.69 3.16L15.69 3.25L15.69 3.56L15.69 3.77L15.68 9.98L15.68 9.98Q16.16 9.98 17.02 9.07L17.02 9.07L17.02 9.07Q17.89 8.16 17.89 7.69L17.89 7.69L17.89 7.69Q17.89 7.45 17.60 7.45L17.60 7.45L17.60 7.45Q17.47 7.45 17.40 7.37L17.40 7.37L17.40 7.37Q17.33 7.29 17.33 7.20L17.33 7.20L17.33 7.20Q17.33 6.99 17.60 6.97L17.60 6.97L17.60 6.97Q18.07 7.01 18.96 7.01L18.96 7.01L18.96 7.01Q19.81 7.01 20.29 6.97L20.29 6.97L20.29 6.97Q20.54 6.97 20.54 7.20L20.54 7.20L20.54 7.20Q20.54 7.28 20.49 7.34L20.49 7.34L20.49 7.34Q20.44 7.41 20.38 7.43L20.38 7.43L20.38 7.43Q20.33 7.45 20.26 7.47L20.26 7.47L20.26 7.47Q20.19 7.49 20.17 7.49L20.17 7.49L20.17 7.49Q19.61 7.71 18.84 8.31L18.84 8.31L18.84 8.31Q18.07 8.90 17.58 9.39L17.58 9.39L17.09 9.88L20.92 13.69L20.92 13.69Q21.08 13.86 21.08 13.97L21.08 13.97L21.08 13.97Q21.08 14.03 21.04 14.06L21.04 14.06L21.04 14.06Q21 14.10 20.96 14.11L20.96 14.11L20.92 14.11L20.92 14.11Q19.85 14.11 19.19 14.17L19.19 14.17L19.19 14.17Q17.08 11.66 16.67 11.22L16.67 11.22L16.67 11.22Q16.25 10.78 15.90 10.67L15.90 10.67L15.90 10.67Q15.75 10.61 15.65 10.57L15.65 10.57L15.65 10.57Q15.67 10.77 15.67 11.07L15.67 11.07L15.67 11.07Q15.67 11.52 15.65 12.07L15.65 12.07L15.65 12.07Q15.64 12.63 15.64 12.75L15.64 12.75L15.64 12.75Q15.64 12.89 15.64 12.98L15.64 12.98L15.64 12.98Q15.64 13.08 15.66 13.16L15.66 13.16L15.66 13.16Q15.68 13.24 15.69 13.29L15.69 13.29L15.69 13.29Q15.69 13.34 15.75 13.39L15.75 13.39L15.75 13.39Q15.81 13.44 15.83 13.46L15.83 13.46L15.83 13.46Q15.85 13.48 15.95 13.51L15.95 13.51L15.95 13.51Q16.04 13.54 16.09 13.54L16.09 13.54L16.09 13.54Q16.13 13.55 16.28 13.59L16.28 13.59L16.28 13.59Q16.42 13.62 16.51 13.64L16.51 13.64L16.51 14.11L13.48 14.11L13.48 13.64L13.48 13.64Q13.55 13.62 13.72 13.59L13.72 13.59L13.72 13.59Q13.89 13.55 13.92 13.54L13.92 13.54L13.92 13.54Q13.96 13.52 14.07 13.50L14.07 13.50L14.07 13.50Q14.18 13.47 14.20 13.43L14.20 13.43L14.20 13.43Q14.22 13.40 14.29 13.34L14.29 13.34L14.29 13.34Q14.36 13.29 14.36 13.21L14.36 13.21L14.36 13.21Q14.36 13.13 14.40 13.03L14.40 13.03L14.40 13.03Q14.43 12.94 14.43 12.79L14.43 12.79L14.43 12.79Q14.43 12.64 14.44 12.48L14.44 12.48L14.44 12.48Q14.45 12.32 14.45 12.08L14.45 12.08L14.45 12.08Q14.45 10.70 14.46 8.90L14.46 8.90L14.46 8.90Q14.48 7.11 14.48 6.66L14.48 6.66L14.48 6.66Q14.48 5.89 14.47 5.43L14.47 5.43L14.47 5.43Q14.46 4.96 14.39 4.61L14.39 4.61L14.39 4.61Q14.32 4.26 14.29 4.11L14.29 4.11L14.29 4.11Q14.25 3.96 14.07 3.87L14.07 3.87L14.07 3.87Q13.89 3.78 13.80 3.77L13.80 3.77L13.80 3.77Q13.71 3.77 13.38 3.75L13.38 3.75ZM21.50 10.67L21.50 10.67L21.50 10.67Q21.50 9.25 21.81 8.53L21.81 8.53L21.81 8.53Q22.04 8.01 22.89 7.40L22.89 7.40L22.89 7.40Q23.74 6.79 24.49 6.79L24.49 6.79L24.49 6.79Q25.13 6.79 25.62 6.94L25.62 6.94L25.62 6.94Q26.11 7.10 26.39 7.40L26.39 7.40L26.39 7.40Q26.67 7.70 26.85 7.99L26.85 7.99L26.85 7.99Q27.02 8.27 27.08 8.70L27.08 8.70L27.08 8.70Q27.15 9.13 27.17 9.38L27.17 9.38L27.17 9.38Q27.19 9.63 27.19 10.00L27.19 10.00L27.19 10.00Q27.19 10.12 27.19 10.18L27.19 10.18L27.19 10.18Q26.74 10.46 25.72 10.46L25.72 10.46L22.85 10.46L22.85 10.46Q22.85 10.91 22.86 11.15L22.86 11.15L22.86 11.15Q22.88 11.40 22.92 11.78L22.92 11.78L22.92 11.78Q22.96 12.17 23.08 12.38L23.08 12.38L23.08 12.38Q23.20 12.60 23.39 12.82L23.39 12.82L23.39 12.82Q23.59 13.05 23.91 13.15L23.91 13.15L23.91 13.15Q24.23 13.24 24.67 13.24L24.67 13.24L24.67 13.24Q25.89 13.24 26.89 12.25L26.89 12.25L27.20 12.57L27.20 12.57Q27.15 12.63 26.94 12.85L26.94 12.85L26.94 12.85Q26.73 13.06 26.66 13.13L26.66 13.13L26.66 13.13Q26.59 13.20 26.39 13.39L26.39 13.39L26.39 13.39Q26.19 13.58 26.09 13.65L26.09 13.65L26.09 13.65Q25.98 13.72 25.80 13.86L25.80 13.86L25.80 13.86Q25.61 14 25.47 14.06L25.47 14.06L25.47 14.06Q25.34 14.11 25.15 14.19L25.15 14.19L25.15 14.19Q24.96 14.27 24.77 14.29L24.77 14.29L24.77 14.29Q24.58 14.32 24.39 14.32L24.39 14.32L24.39 14.32Q23.55 14.32 22.95 13.99L22.95 13.99L22.95 13.99Q22.36 13.66 22.06 13.10L22.06 13.10L22.06 13.10Q21.76 12.54 21.63 11.95L21.63 11.95L21.63 11.95Q21.50 11.35 21.50 10.67ZM22.88 9.83L22.88 9.83L23.67 9.83L23.67 9.83Q25.54 9.83 25.89 9.58L25.89 9.58L25.89 9.58Q25.89 9.28 25.83 9.00L25.83 9.00L25.83 9.00Q25.77 8.72 25.63 8.41L25.63 8.41L25.63 8.41Q25.49 8.09 25.19 7.90L25.19 7.90L25.19 7.90Q24.88 7.70 24.43 7.70L24.43 7.70L24.43 7.70Q23.48 7.70 23.18 8.17L23.18 8.17L23.18 8.17Q22.88 8.64 22.88 9.83Z"></path></g><!----><!----></svg>